<svg data-v-fde0c5aa="" xmlns="http://www.w3.org/2000/svg" viewBox="0 0 300 300" class="iconLeft"><!----><defs data-v-fde0c5aa=""><linearGradient data-v-fde0c5aa="" gradientTransform="rotate(25)" id="c384ec31-5c3d-49c8-8b0e-23dc0d7ef6fe" x1="0%" y1="0%" x2="100%" y2="0%"><stop data-v-fde0c5aa="" offset="0%" stop-color="#395ECA" stop-opacity="1"></stop><stop data-v-fde0c5aa="" offset="100%" stop-color="#848BD8" stop-opacity="1"></stop></linearGradient></defs><rect data-v-fde0c5aa="" fill="url(#c384ec31-5c3d-49c8-8b0e-23dc0d7ef6fe)" x="0" y="0" width="300px" height="300px" class="logo-background-square"></rect><defs data-v-fde0c5aa=""><!----></defs><g data-v-fde0c5aa="" id="6046c381-521e-4911-9d2a-239c73b3e42a" fill="#ffffff" transform="matrix(2.484777005888733,0,0,2.484777005888733,76.87194832121232,117.82213824767452)"><path d="M5.63 13.06L5.62 16.69Q5.62 16.97 5.69 17.12Q5.77 17.28 5.88 17.36Q6.00 17.44 6.13 17.47Q6.25 17.50 6.37 17.53Q6.48 17.57 6.56 17.63Q6.63 17.70 6.63 17.85L6.63 17.85Q6.63 18.63 5.82 18.97Q5.02 19.32 3.49 19.32L3.49 19.32Q2.75 19.32 2.19 19.24Q1.62 19.15 1.23 18.97Q0.84 18.79 0.64 18.52Q0.44 18.24 0.44 17.85L0.44 17.85Q0.44 17.70 0.51 17.63Q0.59 17.57 0.70 17.53Q0.81 17.50 0.94 17.47Q1.07 17.45 1.18 17.37Q1.29 17.29 1.36 17.14Q1.44 16.99 1.44 16.71L1.44 16.71L1.44 13.06Q1.44 12.79 1.36 12.64Q1.29 12.49 1.18 12.41Q1.07 12.33 0.94 12.30Q0.81 12.28 0.70 12.24Q0.59 12.21 0.51 12.14Q0.44 12.08 0.44 11.93L0.44 11.93Q0.44 11.54 0.64 11.26Q0.84 10.99 1.23 10.80Q1.62 10.62 2.19 10.54Q2.75 10.46 3.49 10.46L3.49 10.46Q4.16 10.46 4.56 10.57Q4.96 10.68 5.17 10.82L5.17 10.82Q5.43 10.99 5.52 11.18L5.52 11.18Q5.88 10.93 6.37 10.73L6.37 10.73Q6.79 10.55 7.41 10.40Q8.02 10.26 8.84 10.26L8.84 10.26Q9.59 10.26 10.13 10.45Q10.68 10.64 11.06 10.95Q11.44 11.27 11.67 11.69Q11.90 12.11 12.03 12.57Q12.15 13.03 12.20 13.50Q12.24 13.97 12.24 14.39L12.24 14.39L12.24 16.65Q12.24 16.94 12.32 17.10Q12.39 17.26 12.51 17.35Q12.63 17.43 12.76 17.46Q12.89 17.49 13.01 17.53Q13.13 17.57 13.20 17.63Q13.28 17.70 13.28 17.85L13.28 17.85Q13.28 18.63 12.47 18.97Q11.67 19.32 10.14 19.32L10.14 19.32Q9.41 19.32 8.84 19.24Q8.27 19.15 7.88 18.97Q7.49 18.79 7.29 18.52Q7.09 18.24 7.09 17.85L7.09 17.85Q7.09 17.70 7.16 17.63Q7.24 17.57 7.36 17.53Q7.47 17.50 7.60 17.47Q7.73 17.45 7.85 17.37Q7.96 17.29 8.04 17.14Q8.11 16.99 8.11 16.71L8.11 16.71L8.11 13.79Q8.11 13.37 8.05 13.04Q7.98 12.71 7.83 12.48Q7.68 12.25 7.42 12.13Q7.17 12.01 6.79 12.01L6.79 12.01Q6.56 12.01 6.34 12.09Q6.13 12.17 5.97 12.31Q5.82 12.45 5.73 12.64Q5.63 12.84 5.63 13.06L5.63 13.06ZM18.45 19.49L18.45 19.49Q17.64 19.49 16.96 19.30Q16.28 19.11 15.73 18.77Q15.19 18.44 14.78 17.99Q14.37 17.54 14.10 17.02Q13.82 16.50 13.69 15.93Q13.55 15.36 13.55 14.79L13.55 14.79Q13.55 14.21 13.70 13.65Q13.84 13.08 14.14 12.58Q14.44 12.07 14.88 11.65Q15.33 11.22 15.92 10.92Q16.52 10.61 17.27 10.44Q18.02 10.26 18.92 10.26L18.92 10.26Q19.71 10.26 20.37 10.44Q21.03 10.62 21.57 10.93Q22.10 11.24 22.50 11.66Q22.90 12.09 23.17 12.58Q23.43 13.08 23.57 13.64Q23.70 14.19 23.70 14.75L23.70 14.75Q23.70 15.33 23.56 15.91Q23.41 16.50 23.12 17.02Q22.83 17.55 22.39 18.00Q21.96 18.45 21.37 18.78Q20.79 19.11 20.06 19.30Q19.33 19.49 18.45 19.49ZM18.76 17.74L18.76 17.74Q18.98 17.74 19.14 17.61Q19.29 17.47 19.39 17.22Q19.48 16.97 19.52 16.61Q19.56 16.25 19.56 15.80L19.56 15.80Q19.56 15.42 19.56 14.98Q19.55 14.55 19.52 14.13Q19.50 13.71 19.43 13.32Q19.37 12.94 19.26 12.65Q19.15 12.35 18.98 12.18Q18.81 12.01 18.56 12.01L18.56 12.01Q18.32 12.01 18.15 12.14Q17.99 12.28 17.88 12.52Q17.77 12.76 17.72 13.09Q17.66 13.43 17.66 13.83L17.66 13.83Q17.66 14.21 17.68 14.64Q17.69 15.08 17.73 15.51Q17.77 15.95 17.85 16.35Q17.93 16.75 18.05 17.06Q18.17 17.37 18.34 17.55Q18.52 17.74 18.76 17.74ZM34.73 11.10L34.73 11.10Q34.85 11.03 35.04 10.89Q35.23 10.75 35.59 10.61Q35.96 10.47 36.57 10.36Q37.18 10.26 38.14 10.26L38.14 10.26Q38.86 10.26 39.39 10.43Q39.92 10.60 40.30 10.90Q40.68 11.19 40.93 11.59Q41.17 11.99 41.32 12.45Q41.46 12.91 41.51 13.41Q41.57 13.91 41.57 14.40L41.57 14.40L41.57 14.47Q41.56 15.29 41.56 15.73Q41.56 16.17 41.56 16.37Q41.56 16.58 41.56 16.61Q41.56 16.65 41.56 16.65L41.56 16.65Q41.56 16.94 41.63 17.10Q41.71 17.26 41.82 17.35Q41.93 17.43 42.06 17.46Q42.20 17.49 42.31 17.53Q42.42 17.57 42.50 17.63Q42.57 17.70 42.57 17.85L42.57 17.85Q42.57 18.24 42.38 18.52Q42.18 18.79 41.81 18.97Q41.43 19.15 40.88 19.24Q40.33 19.32 39.62 19.32L39.62 19.32Q38.93 19.32 38.39 19.24Q37.86 19.15 37.49 18.97Q37.12 18.79 36.93 18.52Q36.74 18.24 36.74 17.85L36.74 17.85Q36.74 17.70 36.79 17.63Q36.84 17.57 36.91 17.53Q36.99 17.50 37.08 17.47Q37.17 17.45 37.24 17.37Q37.32 17.29 37.37 17.14Q37.42 16.99 37.42 16.71L37.42 16.71L37.42 13.77Q37.42 13.36 37.37 13.03Q37.32 12.70 37.20 12.48Q37.08 12.25 36.89 12.13Q36.70 12.01 36.40 12.01L36.40 12.01Q35.95 12.01 35.75 12.29Q35.55 12.58 35.55 13.03L35.55 13.03L35.55 16.63Q35.55 16.93 35.60 17.09Q35.66 17.25 35.74 17.34Q35.83 17.42 35.93 17.46Q36.03 17.49 36.11 17.53Q36.20 17.57 36.25 17.63Q36.31 17.70 36.31 17.85L36.31 17.85Q36.31 18.24 36.15 18.52Q36.00 18.79 35.67 18.97Q35.35 19.15 34.84 19.24Q34.33 19.32 33.61 19.32L33.61 19.32Q32.92 19.32 32.39 19.24Q31.85 19.15 31.48 18.97Q31.11 18.79 30.92 18.52Q30.73 18.24 30.73 17.85L30.73 17.85Q30.73 17.70 30.78 17.63Q30.83 17.57 30.91 17.53Q30.98 17.50 31.07 17.47Q31.17 17.45 31.24 17.37Q31.32 17.29 31.37 17.14Q31.42 16.99 31.42 16.71L31.42 16.71L31.42 13.77Q31.42 12.94 31.22 12.48Q31.01 12.02 30.50 12.02L30.50 12.02Q30.29 12.02 30.11 12.10Q29.92 12.17 29.78 12.31Q29.63 12.46 29.55 12.65Q29.47 12.84 29.47 13.06L29.47 13.06L29.47 16.69Q29.47 16.97 29.53 17.12Q29.59 17.28 29.67 17.36Q29.76 17.44 29.87 17.47Q29.98 17.50 30.06 17.53Q30.15 17.57 30.21 17.63Q30.27 17.70 30.27 17.85L30.27 17.85Q30.27 18.63 29.49 18.97Q28.72 19.32 27.26 19.32L27.26 19.32Q26.56 19.32 26.00 19.24Q25.45 19.15 25.07 18.97Q24.69 18.79 24.49 18.52Q24.29 18.24 24.29 17.85L24.29 17.85Q24.29 17.70 24.36 17.63Q24.44 17.57 24.55 17.53Q24.66 17.50 24.79 17.47Q24.92 17.45 25.03 17.37Q25.14 17.29 25.21 17.14Q25.29 16.99 25.29 16.71L25.29 16.71L25.29 13.06Q25.29 12.79 25.21 12.64Q25.14 12.49 25.03 12.41Q24.92 12.33 24.79 12.30Q24.66 12.28 24.55 12.24Q24.44 12.21 24.36 12.14Q24.29 12.08 24.29 11.93L24.29 11.93Q24.29 11.54 24.49 11.26Q24.68 10.99 25.06 10.80Q25.44 10.62 25.99 10.54Q26.54 10.46 27.23 10.46L27.23 10.46Q27.54 10.46 27.79 10.49Q28.05 10.52 28.24 10.57Q28.44 10.62 28.58 10.69Q28.72 10.75 28.83 10.82L28.83 10.82Q29.07 10.99 29.16 11.18L29.16 11.18Q29.50 10.93 29.97 10.73L29.97 10.73Q30.37 10.55 30.95 10.40Q31.53 10.26 32.31 10.26L32.31 10.26Q33.12 10.26 33.74 10.49Q34.36 10.72 34.73 11.10ZM44.15 8.11L44.15 8.11Q44.15 7.77 44.27 7.51Q44.39 7.25 44.57 7.06Q44.76 6.88 45.00 6.75Q45.25 6.62 45.49 6.55Q45.74 6.47 45.97 6.44Q46.20 6.41 46.37 6.41L46.37 6.41Q46.55 6.41 46.79 6.44Q47.02 6.47 47.27 6.55Q47.52 6.62 47.76 6.75Q48.00 6.88 48.18 7.06Q48.37 7.25 48.48 7.51Q48.60 7.77 48.60 8.11L48.60 8.11Q48.60 8.44 48.48 8.70Q48.37 8.96 48.18 9.15Q48.00 9.33 47.76 9.46Q47.52 9.58 47.27 9.66Q47.02 9.73 46.79 9.77Q46.55 9.80 46.37 9.80L46.37 9.80Q46.20 9.80 45.97 9.77Q45.74 9.73 45.49 9.66Q45.25 9.58 45.00 9.46Q44.76 9.33 44.57 9.15Q44.39 8.96 44.27 8.71Q44.15 8.45 44.15 8.11ZM48.38 12.05L48.38 16.71Q48.38 16.99 48.46 17.14Q48.54 17.29 48.65 17.37Q48.76 17.45 48.89 17.47Q49.02 17.50 49.13 17.53Q49.25 17.57 49.32 17.63Q49.40 17.70 49.40 17.85L49.40 17.85Q49.40 18.63 48.59 18.97Q47.78 19.32 46.26 19.32L46.26 19.32Q45.52 19.32 44.95 19.24Q44.39 19.15 44.00 18.97Q43.61 18.79 43.40 18.52Q43.20 18.24 43.20 17.85L43.20 17.85Q43.20 17.70 43.28 17.63Q43.35 17.57 43.46 17.53Q43.57 17.50 43.70 17.47Q43.83 17.45 43.94 17.37Q44.05 17.29 44.13 17.14Q44.20 16.99 44.20 16.71L44.20 16.71L44.20 13.06Q44.20 12.79 44.13 12.64Q44.05 12.49 43.94 12.41Q43.83 12.33 43.70 12.30Q43.57 12.28 43.46 12.24Q43.35 12.21 43.28 12.14Q43.20 12.08 43.20 11.93L43.20 11.93Q43.20 11.54 43.40 11.26Q43.61 10.99 44.00 10.80Q44.39 10.62 44.95 10.54Q45.52 10.46 46.26 10.46L46.26 10.46Q47.00 10.46 47.42 10.53Q47.84 10.61 48.06 10.79Q48.28 10.97 48.33 11.28Q48.38 11.59 48.38 12.05L48.38 12.05ZM55.28 13.06L55.27 16.69Q55.27 16.97 55.34 17.12Q55.42 17.28 55.53 17.36Q55.64 17.44 55.77 17.47Q55.90 17.50 56.02 17.53Q56.13 17.57 56.21 17.63Q56.28 17.70 56.28 17.85L56.28 17.85Q56.28 18.63 55.47 18.97Q54.67 19.32 53.14 19.32L53.14 19.32Q52.40 19.32 51.84 19.24Q51.27 19.15 50.88 18.97Q50.49 18.79 50.29 18.52Q50.09 18.24 50.09 17.85L50.09 17.85Q50.09 17.70 50.16 17.63Q50.24 17.57 50.35 17.53Q50.46 17.50 50.59 17.47Q50.72 17.45 50.83 17.37Q50.93 17.29 51.01 17.14Q51.08 16.99 51.08 16.71L51.08 16.71L51.08 13.06Q51.08 12.79 51.01 12.64Q50.93 12.49 50.83 12.41Q50.72 12.33 50.59 12.30Q50.46 12.28 50.35 12.24Q50.24 12.21 50.16 12.14Q50.09 12.08 50.09 11.93L50.09 11.93Q50.09 11.54 50.29 11.26Q50.49 10.99 50.88 10.80Q51.27 10.62 51.84 10.54Q52.40 10.46 53.14 10.46L53.14 10.46Q53.81 10.46 54.21 10.57Q54.61 10.68 54.82 10.82L54.82 10.82Q55.08 10.99 55.17 11.18L55.17 11.18Q55.53 10.93 56.02 10.73L56.02 10.73Q56.44 10.55 57.06 10.40Q57.67 10.26 58.49 10.26L58.49 10.26Q59.24 10.26 59.78 10.45Q60.33 10.64 60.71 10.95Q61.09 11.27 61.32 11.69Q61.55 12.11 61.68 12.57Q61.80 13.03 61.85 13.50Q61.89 13.97 61.89 14.39L61.89 14.39L61.89 16.65Q61.89 16.94 61.97 17.10Q62.04 17.26 62.16 17.35Q62.28 17.43 62.41 17.46Q62.54 17.49 62.66 17.53Q62.77 17.57 62.85 17.63Q62.92 17.70 62.92 17.85L62.92 17.85Q62.92 18.63 62.12 18.97Q61.32 19.32 59.79 19.32L59.79 19.32Q59.06 19.32 58.49 19.24Q57.92 19.15 57.53 18.97Q57.14 18.79 56.94 18.52Q56.74 18.24 56.74 17.85L56.74 17.85Q56.74 17.70 56.81 17.63Q56.89 17.57 57.00 17.53Q57.12 17.50 57.25 17.47Q57.38 17.45 57.50 17.37Q57.61 17.29 57.69 17.14Q57.76 16.99 57.76 16.71L57.76 16.71L57.76 13.79Q57.76 13.37 57.70 13.04Q57.63 12.71 57.48 12.48Q57.33 12.25 57.07 12.13Q56.82 12.01 56.44 12.01L56.44 12.01Q56.21 12.01 55.99 12.09Q55.78 12.17 55.62 12.31Q55.47 12.45 55.37 12.64Q55.28 12.84 55.28 13.06L55.28 13.06ZM68.00 17.92L68.00 17.92Q68.22 17.92 68.36 17.85Q68.50 17.77 68.58 17.64Q68.65 17.51 68.68 17.31Q68.70 17.12 68.70 16.87L68.70 16.87Q68.70 16.66 68.69 16.33Q68.69 16.00 68.68 15.69L68.68 15.69Q68.67 15.32 68.66 14.92L68.66 14.92Q68.56 14.91 68.48 14.90Q68.39 14.89 68.31 14.89L68.31 14.89Q67.96 14.89 67.73 15.03Q67.49 15.17 67.35 15.42Q67.20 15.67 67.15 16.01Q67.09 16.34 67.09 16.74L67.09 16.74Q67.09 16.98 67.12 17.20Q67.14 17.41 67.24 17.57Q67.33 17.73 67.52 17.82Q67.70 17.92 68.00 17.92ZM71.29 19.32L71.29 19.32Q70.94 19.32 70.60 19.28Q70.25 19.24 69.94 19.13Q69.63 19.01 69.37 18.79Q69.11 18.57 68.93 18.21L68.93 18.21Q68.79 18.53 68.49 18.77Q68.18 19.01 67.80 19.17Q67.41 19.33 66.98 19.41Q66.55 19.49 66.17 19.49L66.17 19.49Q65.47 19.49 64.96 19.33Q64.44 19.16 64.08 18.86Q63.72 18.55 63.55 18.13Q63.37 17.71 63.37 17.18L63.37 17.18Q63.37 16.56 63.58 16.00Q63.79 15.44 64.29 15.03Q64.79 14.61 65.63 14.37Q66.47 14.12 67.74 14.12L67.74 14.12L68.67 14.12Q68.67 13.36 68.62 12.87Q68.57 12.37 68.46 12.07Q68.35 11.78 68.19 11.66Q68.02 11.55 67.79 11.55L67.79 11.55Q67.53 11.55 67.36 11.70Q67.18 11.86 67.08 12.16Q66.97 12.46 66.93 12.88Q66.88 13.30 66.88 13.83L66.88 13.83Q66.59 13.83 66.26 13.82Q65.94 13.81 65.62 13.77Q65.30 13.73 65.02 13.64Q64.74 13.56 64.52 13.41Q64.30 13.26 64.17 13.04Q64.04 12.81 64.04 12.49L64.04 12.49Q64.04 12.04 64.27 11.63Q64.51 11.23 65.00 10.93Q65.49 10.62 66.24 10.44Q66.99 10.26 68.03 10.26L68.03 10.26Q69.24 10.26 70.12 10.51Q70.99 10.75 71.56 11.25Q72.12 11.74 72.39 12.49Q72.66 13.23 72.66 14.24L72.66 14.24L72.66 16.66Q72.66 16.95 72.74 17.12Q72.82 17.28 72.93 17.37Q73.04 17.45 73.18 17.49Q73.32 17.52 73.43 17.56Q73.54 17.60 73.62 17.66Q73.70 17.73 73.70 17.88L73.70 17.88Q73.70 18.56 73.09 18.94Q72.47 19.32 71.29 19.32Z"></path></g><defs data-v-fde0c5aa=""><!----></defs><g data-v-fde0c5aa="" id="b3f8e8c9-1f60-4948-99af-2cee3948564d" stroke="none" fill="#ffffff" transform="matrix(1.5234788928492742,0,0,1.5234788928492742,28.106200039438065,125.62433771441161)"><path d="M18.396 26.495L7.807 15.905 18.432 5.28l.707.707-9.918 9.918 9.882 9.883z"></path><path d="M23.194 1v4.194H19V1h4.194m1-1H18v6.194h6.194V0zM23.194 26.806V31H19v-4.194h4.194m1-1H18V32h6.194v-6.194z"></path></g><!----></svg>